<?xml version="1.0" encoding="UTF-8"?> <svg xmlns="http://www.w3.org/2000/svg" xmlns:xlink="http://www.w3.org/1999/xlink" id="Acadea-logo-full-color" width="291.477" height="69.184" viewBox="0 0 291.477 69.184"><defs><clipPath id="clip-path"><rect id="Rectangle_1" data-name="Rectangle 1" width="291.476" height="69.184" fill="none"></rect></clipPath></defs><path id="Path_1" data-name="Path 1" d="M11.3,21.485V53.13L36.255,68.441,61.2,53.13V21.485L36.255,6.174Z" transform="translate(1.362 0.744)" fill="#d9dfe8"></path><path id="Path_2" data-name="Path 2" d="M37.616,0,0,23.082,37.616,46.163,75.232,23.082Z" transform="translate(0 0)" fill="#75979b"></path><path id="Path_3" data-name="Path 3" d="M61.2,21.485,36.254,6.175,11.3,21.485V40.791L36.254,56.1,61.2,40.791Z" transform="translate(1.362 0.744)" fill="#628aa0"></path><path id="Path_4" data-name="Path 4" d="M61.2,21.485,36.254,6.175,11.3,21.485v8.624L36.254,45.42,61.2,30.109Z" transform="translate(1.362 0.744)" fill="#195259"></path><g id="Group_2" data-name="Group 2" transform="translate(0 0)"><g id="Group_1" data-name="Group 1" clip-path="url(#clip-path)"><path id="Path_5" data-name="Path 5" d="M64.851,65.41a67.537,67.537,0,0,1-1.256-8.055c-.124-1.323-.208-2.663-.254-4a2.086,2.086,0,0,0,.057-3.365,1.4,1.4,0,0,0-.655-1.883V30.554a2.029,2.029,0,0,0-1.449-1.935l-24.91-7.938A2.541,2.541,0,1,0,36.14,22l24.778,7.9a.685.685,0,0,1,.487.653V48.16a1.4,1.4,0,0,0-.559,1.832,2.09,2.09,0,0,0,.084,3.387c-.019.742-.048,1.486-.1,2.22A58.742,58.742,0,0,1,59.16,66.236a.257.257,0,0,0,.186.31.292.292,0,0,0,.063.008.257.257,0,0,0,.248-.193c.121-.48.234-.96.344-1.442a.342.342,0,0,0,.046.006.255.255,0,0,0,.248-.193c.266-1.049.5-2.105.706-3.166-.173,1.352-.387,2.7-.64,4.035a.251.251,0,0,0,.18.289c-.025.129-.046.259-.069.388a.255.255,0,0,0,.2.3.35.35,0,0,0,.048,0,.254.254,0,0,0,.25-.208c.214-1.122.4-2.254.577-3.39.019.145.038.288.058.432Q61.368,65,61,66.575a.257.257,0,0,0,.19.307.266.266,0,0,0,.058.007.255.255,0,0,0,.249-.2c.011-.046.02-.091.031-.137a.253.253,0,0,0,.208-.177c.082-.276.16-.55.235-.826.055.277.112.555.174.832a.253.253,0,0,0,.185.189c.009.059.016.12.024.179a.257.257,0,0,0,.253.221.2.2,0,0,0,.036,0,.255.255,0,0,0,.217-.288c-.036-.255-.068-.512-.1-.767a.282.282,0,0,0,.069.012h.024a.255.255,0,0,0,.231-.278c-.119-1.274-.211-2.559-.276-3.845.025-.143.05-.287.073-.43q.232,2.607.688,5.191a.255.255,0,0,0,.251.211.318.318,0,0,0,.046,0,.256.256,0,0,0,.206-.3,59.155,59.155,0,0,1-.854-7.758l0-.021a67.726,67.726,0,0,0,1.129,6.823.255.255,0,0,0,.249.2.23.23,0,0,0,.055-.007.254.254,0,0,0,.195-.3" transform="translate(3.771 2.21)" fill="#f4380c"></path><path id="Path_6" data-name="Path 6" d="M98.346,11.538h9.517L123.808,55.4h-8.571l-3.4-9.894H93.62L90.027,55.4H81.708ZM95.952,39.079h13.676l-4.979-14.495c-.378-1.2-1.386-4.1-1.513-4.727h-.315c-.188.63-1.2,3.529-1.575,4.663Z" transform="translate(9.839 1.39)" fill="#195259"></path><path id="Path_7" data-name="Path 7" d="M119.22,37.717c0-10.588,7.121-16.953,16.2-16.953,4.286,0,7.5.945,9.706,2.394v6.554a16.868,16.868,0,0,0-8-1.954c-5.546,0-9.454,3.341-9.454,9.9,0,6.807,4.412,10.209,10.21,10.209a16.236,16.236,0,0,0,7.563-2.08v6.554A17.2,17.2,0,0,1,136.3,54.67c-9.074,0-17.079-5.546-17.079-16.953" transform="translate(14.357 2.501)" fill="#195259"></path><path id="Path_8" data-name="Path 8" d="M144.672,44.46c0-6.807,5.167-10.4,11.47-10.4,3.529,0,6.554,1.071,8.382,3.088V34.124c0-4.79-2.9-6.807-8.13-6.807a23.45,23.45,0,0,0-8.886,1.7V23.032c2.269-1.26,6.492-2.269,11.6-2.269,9.517,0,13.865,4.664,13.865,13.109V49.187a21.182,21.182,0,0,0,.567,5.1h-8.067l-.567-3.656c-1.891,2.522-5.231,4.034-9.138,4.034-6.177,0-11.156-3.4-11.092-10.209m20.293-.252c0-3.4-2.773-5.546-6.113-5.546-3.592,0-6.365,2.143-6.365,5.546,0,3.529,2.584,5.735,6.239,5.735,3.341,0,6.24-2.206,6.24-5.735" transform="translate(17.422 2.5)" fill="#195259"></path><path id="Path_9" data-name="Path 9" d="M172.78,39.431c0-11.659,7.059-17.395,14.369-17.395,4.727,0,8.256,1.829,10.4,5.106V10.189h8.571V55.565h-7.688l-.5-5.546a12.582,12.582,0,0,1-10.9,5.925c-8.823,0-14.244-6.744-14.244-16.513m25.209-.125c0-6.365-3.277-10.713-8.319-10.713-4.979,0-8.193,4.159-8.193,10.587,0,6.366,3.088,10.462,8.193,10.462,5.169,0,8.319-4.223,8.319-10.336" transform="translate(20.806 1.227)" fill="#195259"></path><path id="Path_10" data-name="Path 10" d="M205.313,37.416c0-10.525,7.059-16.765,15.693-16.765,9.769,0,15.188,7,14.559,16.953l-.063,1.7H213.569c.819,6.365,5.482,9.39,11.28,9.39a20.877,20.877,0,0,0,10.084-2.646v5.734c-2.836,1.891-6.428,3.089-11.785,3.089-9.706,0-17.836-5.673-17.836-17.457m8.319-2.71H228.7c-.252-5.042-3.277-7.626-7.437-7.626-4.1,0-6.932,2.646-7.626,7.626" transform="translate(24.724 2.487)" fill="#195259"></path><path id="Path_11" data-name="Path 11" d="M234.387,44.46c0-6.807,5.167-10.4,11.47-10.4,3.529,0,6.554,1.071,8.382,3.088V34.124c0-4.79-2.9-6.807-8.13-6.807a23.45,23.45,0,0,0-8.886,1.7V23.032c2.269-1.26,6.492-2.269,11.6-2.269,9.517,0,13.865,4.664,13.865,13.109V49.187a21.183,21.183,0,0,0,.567,5.1h-8.067l-.567-3.656c-1.891,2.522-5.231,4.034-9.138,4.034-6.177,0-11.156-3.4-11.092-10.209m20.293-.252c0-3.4-2.773-5.546-6.113-5.546-3.592,0-6.365,2.143-6.365,5.546,0,3.529,2.584,5.735,6.238,5.735,3.341,0,6.24-2.206,6.24-5.735" transform="translate(28.225 2.5)" fill="#195259"></path></g></g></svg> 